<svg xmlns="http://www.w3.org/2000/svg" width="232.169" height="58.57" viewBox="0 0 232.169 58.57"><defs><style>.a{fill:#e6adaf;}.b{fill:#83b20f;}.c{fill:none;}</style></defs><g transform="translate(-409 -15)"><path class="a" d="M318.284,67.121A68.057,68.057,0,0,0,308.713,56.3c-.455-.423-.893-.864-1.339-1.3h-.062c-.925.874-1.861,1.736-2.773,2.623a66.3,66.3,0,0,0-8.333,9.723l2.773,3.324.255-.409s3.788-5.1,6.023-7.465V76.578l2.064,1.616,2.082-1.873V62.883c.675.391,5.994,7.383,5.994,7.383l.28.4,2.767-3.315C318.391,67.277,318.338,67.2,318.284,67.121Z" transform="translate(129.547 -40)"/><path class="b" d="M758.954,136.34v.355q0,5.578,0,11.157c0,.562-.15.712-.71.713-.729,0-1.458,0-2.188,0-.451,0-.636-.186-.636-.635q0-9.123,0-18.246c0-.421.173-.567.6-.608a1.115,1.115,0,0,1,1.009.412q4.962,5.311,9.955,10.594l1.073,1.138v-.409q0-5.378,0-10.756c0-.549.159-.706.719-.706q1.063,0,2.126,0c.543,0,.73.183.73.716q0,9.046,0,18.091c0,.512-.167.649-.687.683a.981.981,0,0,1-.869-.377q-5.418-5.979-10.856-11.94a1.567,1.567,0,0,1-.156-.255Z" transform="translate(-211.701 -95.042)"/><path class="b" d="M488.667,142.392v.418q0,2.928,0,5.856c0,.526-.169.691-.7.692-.75,0-1.5,0-2.249,0-.426,0-.62-.195-.62-.624q0-8.97,0-17.939c0-.461.192-.65.663-.65,2.116,0,4.232-.015,6.348,0a6.123,6.123,0,0,1,.048,12.245h-3.485Zm.012-3.388c.108.007.188.016.269.016,1.007,0,2.013.008,3.02,0a2.743,2.743,0,1,0-.118-5.484c-.965-.007-1.931,0-2.9,0-.088,0-.176.013-.274.021Z" transform="translate(-10.816 -95.835)"/><path class="b" d="M595.924,138.509v-2.7q0-2.481,0-4.962c0-.5.184-.693.684-.695q1.017,0,2.034,0c.475,0,.672.2.672.677q0,8.938,0,17.875c0,.463-.194.658-.651.661-.267,0-.534,0-.8,0a.57.57,0,0,1-.658-.472c-.094-.269-.179-.541-.278-.844a1.226,1.226,0,0,0-.134.1,4.939,4.939,0,0,1-7.751-.892,6.3,6.3,0,0,1,.495-7.451,5.05,5.05,0,0,1,4.285-1.678A18.654,18.654,0,0,1,595.924,138.509Zm.113,4.856c0-.472.01-.944-.007-1.415a.444.444,0,0,0-.153-.326,3.347,3.347,0,0,0-2.8-.389,2.9,2.9,0,0,0-1.057,4.677,2.362,2.362,0,0,0,2.594.6,2.255,2.255,0,0,0,1.427-2.188Z" transform="translate(-87.327 -95.848)"/><path class="b" d="M921.813,171.931c-.133.117-.261.232-.392.344a4.906,4.906,0,0,1-5.219.839,4.039,4.039,0,0,1-2.464-3.133,8.07,8.07,0,0,1-.2-1.706c-.026-1.787-.01-3.575-.009-5.363,0-.529.145-.673.677-.673q.986,0,1.972,0c.482,0,.637.16.637.651,0,1.716-.01,3.431.008,5.147a4.05,4.05,0,0,0,.176,1.179,1.854,1.854,0,0,0,2.724,1.047,2.349,2.349,0,0,0,1.273-2.137q0-2.6,0-5.209c0-.582.1-.679.679-.679h1.818c.592,0,.738.147.739.753q0,1.433,0,2.866,0,3.251,0,6.5c0,.723-.128.852-.836.852h-.524c-.484,0-.595-.079-.767-.544-.082-.221-.163-.443-.245-.664A.623.623,0,0,0,921.813,171.931Z" transform="translate(-329.186 -119.69)"/><path class="b" d="M644.632,167.462a2.539,2.539,0,0,0,1.95,2.29,3.489,3.489,0,0,0,2.646-.526c.541-.335.647-.323,1.059.154.288.334.581.664.868,1s.291.572-.064.856a5.817,5.817,0,0,1-6.483.854,5.417,5.417,0,0,1-3.135-5.48,5.547,5.547,0,0,1,4.655-5.39,5.062,5.062,0,0,1,6.011,5.732c-.047.354-.242.509-.646.509q-2.526,0-5.052,0Zm.244-1.952h4.045a1.957,1.957,0,0,0-1.837-1.827A2.108,2.108,0,0,0,644.876,165.51Z" transform="translate(-127.023 -118.872)"/><path class="b" d="M549.286,166.887a5.627,5.627,0,1,1-5.481-5.774A5.708,5.708,0,0,1,549.286,166.887Zm-8.261.081c.034.212.054.428.106.636a2.579,2.579,0,0,0,3.641,1.8,2.858,2.858,0,0,0,1.482-2.908,2.642,2.642,0,0,0-2.786-2.39A2.71,2.71,0,0,0,541.025,166.969Z" transform="translate(-50.156 -118.852)"/><path class="b" d="M835.8,171.259a4.962,4.962,0,0,1-2.629,1.341,3.632,3.632,0,0,1-3.984-1.794c-1-2.1-.4-4.645,2.652-5.265a6.687,6.687,0,0,1,3.02.1c.079.02.16.031.262.05a2.255,2.255,0,0,0-.2-1.263,1,1,0,0,0-.869-.553,11,11,0,0,0-3.232.342c-.556.128-.715.032-.816-.543-.076-.435-.16-.868-.23-1.3-.067-.416.042-.64.416-.739a12.191,12.191,0,0,1,4.781-.441,3.211,3.211,0,0,1,3.049,3.157,14.316,14.316,0,0,1,.094,1.566c.011,1.911,0,3.821,0,5.732,0,.563-.168.727-.738.727a4.427,4.427,0,0,0-.554,0,.64.64,0,0,1-.745-.491C836,171.684,835.9,171.493,835.8,171.259Zm-.725-2.644c0-.305.014-.512-.007-.716a.305.305,0,0,0-.148-.219,3.269,3.269,0,0,0-1.867-.22,1.429,1.429,0,0,0-1.212,1.046,1.347,1.347,0,0,0,.421,1.455,1.511,1.511,0,0,0,1.735.142C834.654,169.79,835.285,169.433,835.072,168.616Z" transform="translate(-266.185 -118.848)"/><path class="b" d="M1105.386,171.368a11.926,11.926,0,0,1-1.573.94,4.12,4.12,0,0,1-4.083-.313,3.6,3.6,0,0,1,1.659-6.423,6.771,6.771,0,0,1,3.021.1c.078.02.158.028.237.042a1.347,1.347,0,0,0-1.417-1.822,28.44,28.44,0,0,0-2.892.372c-.5.081-.684,0-.777-.5-.082-.444-.149-.89-.229-1.335s.047-.676.5-.8a14.128,14.128,0,0,1,3.5-.48,7.83,7.83,0,0,1,1.53.129,3.139,3.139,0,0,1,2.694,2.978,13.934,13.934,0,0,1,.115,1.687c.014,1.911.006,3.821.005,5.732,0,.561-.169.727-.739.727a4.632,4.632,0,0,0-.554,0,.635.635,0,0,1-.743-.489C1105.562,171.717,1105.459,171.527,1105.386,171.368Zm-.735-2.831v-.185c0-.624,0-.63-.612-.784a2.677,2.677,0,0,0-1.922.094,1.388,1.388,0,0,0-.771,1.448,1.336,1.336,0,0,0,1.086,1.187,2.278,2.278,0,0,0,1.767-.544A1.153,1.153,0,0,0,1104.651,168.537Z" transform="translate(-466.504 -118.881)"/><path class="b" d="M1007.625,165.686a8.736,8.736,0,0,0-.107-.9,1.066,1.066,0,0,0-1.1-.938,10.93,10.93,0,0,0-3.139.347c-.55.13-.712.042-.815-.507q-.134-.711-.244-1.426a.5.5,0,0,1,.362-.627,11.3,11.3,0,0,1,5.26-.384,3.051,3.051,0,0,1,2.587,2.829,13.937,13.937,0,0,1,.138,1.932c.017,1.859.007,3.719.006,5.579,0,.607-.158.763-.766.763-.205,0-.412-.014-.616,0a.556.556,0,0,1-.615-.4c-.092-.228-.2-.448-.314-.7-.235.182-.451.365-.682.526a4.445,4.445,0,0,1-3.9.666,3.461,3.461,0,0,1-2.45-3.895,3.42,3.42,0,0,1,3.084-3.041,7.063,7.063,0,0,1,2.992.1C1007.391,165.639,1007.471,165.653,1007.625,165.686Zm-.077,2.922c0-.964,0-.964-.861-1.144l-.03-.007a2.463,2.463,0,0,0-1.7.2,1.368,1.368,0,0,0-.683,1.488,1.31,1.31,0,0,0,1.053,1.106,2.24,2.24,0,0,0,1.743-.514A1.04,1.04,0,0,0,1007.548,168.607Z" transform="translate(-394.354 -118.834)"/><path class="b" d="M878.828,154.739c-.006.118-.015.207-.015.3q0,2.034,0,4.068c0,.656.314.952.969.863a7.918,7.918,0,0,0,1.132-.276c.4-.116.577-.046.706.347.182.555.351,1.115.531,1.671a.455.455,0,0,1-.234.625,7.364,7.364,0,0,1-4.285.645,2.581,2.581,0,0,1-2.015-2.368,8.116,8.116,0,0,1-.076-1.073c-.008-1.469,0-2.938,0-4.407v-.391c-.268,0-.519,0-.77,0-.472-.006-.658-.182-.666-.65q-.013-.8,0-1.6c.007-.491.169-.643.651-.644h.769c.006-.129.015-.238.015-.347,0-.863,0-1.726,0-2.589,0-.436.173-.622.607-.632q1.031-.025,2.063-.027c.411,0,.6.189.6.6.006.873,0,1.746,0,2.62v.372h1c.462,0,.925,0,1.386,0,.326,0,.523.165.531.475.017.637.018,1.274,0,1.91-.01.331-.233.5-.613.508-.647.008-1.294,0-1.941,0Z" transform="translate(-299.888 -109.292)"/><path class="b" d="M1049.863,139.762q0-4.436,0-8.872c0-.558.175-.732.739-.733.647,0,1.294,0,1.94,0,.482,0,.68.193.68.667q0,8.934,0,17.868c0,.5-.185.679-.692.68-.677,0-1.355,0-2.032,0-.441,0-.634-.2-.634-.645Q1049.862,144.245,1049.863,139.762Z" transform="translate(-430.505 -95.85)"/><path class="b" d="M970.362,162.72a11.94,11.94,0,0,1,.964-.89,3.884,3.884,0,0,1,3.717-.466,1.246,1.246,0,0,1,.372.212.487.487,0,0,1,.151.679c-.332.59-.666,1.178-1.008,1.762a.512.512,0,0,1-.687.222,2.141,2.141,0,0,0-2.39.578.9.9,0,0,0-.278.684c.012,2.033.007,4.066.006,6.1,0,.625-.14.767-.753.767-.636,0-1.273,0-1.909,0a.546.546,0,0,1-.624-.623q0-4.867,0-9.734c0-.438.183-.612.62-.615.287,0,.576.013.862,0a.561.561,0,0,1,.62.435c.1.291.208.578.314.866A.06.06,0,0,0,970.362,162.72Z" transform="translate(-369.613 -118.845)"/><path class="b" d="M694.563,162.79a4.035,4.035,0,0,1,2.069-1.522,4.2,4.2,0,0,1,2.571.092,1.485,1.485,0,0,1,.424.242.47.47,0,0,1,.129.656c-.326.582-.652,1.163-.989,1.739-.177.3-.359.359-.732.236a2.145,2.145,0,0,0-2.381.614.92.92,0,0,0-.276.685c.012,2.064.006,4.128.006,6.191,0,.494-.144.645-.637.648-.667,0-1.334,0-2,0-.429,0-.627-.2-.627-.617q0-4.867,0-9.734c0-.446.17-.619.608-.622.3,0,.6.01.893,0a.545.545,0,0,1,.594.424C694.317,162.128,694.433,162.432,694.563,162.79Z" transform="translate(-164.659 -118.851)"/><path class="b" d="M1075.736,167.7q0-2.4,0-4.808c0-.5.153-.654.664-.654q1,0,2,0c.486,0,.66.177.661.675q0,3.56,0,7.12,0,1.217,0,2.435c0,.567-.175.744-.729.744h-1.91c-.531,0-.689-.162-.689-.7Q1075.735,170.105,1075.736,167.7Z" transform="translate(-449.732 -119.69)"/><path class="b" d="M1078.556,134.24a1.9,1.9,0,0,1-1.943,1.882,1.9,1.9,0,0,1,.038-3.8A1.9,1.9,0,0,1,1078.556,134.24Z" transform="translate(-449.019 -97.457)"/><path class="c" d="M298.793,136.182q-3.322-3.165-6.627-6.347c-.485-.465-.973-.927-1.47-1.4-.042.06-.068.09-.087.125a38.394,38.394,0,0,0-2.9,6.607.328.328,0,0,0,.111.4q4.758,4.467,9.511,8.941l1.809,1.7v-.42c0-2.927-.007-5.854.009-8.781A1.024,1.024,0,0,0,298.793,136.182Z" transform="translate(135.885 -94.571)"/><path class="c" d="M346.663,146.1c.127-.105.2-.16.268-.222q5.516-5.17,11.033-10.338a.367.367,0,0,0,.124-.448,37.569,37.569,0,0,0-2.109-5.081c-.273-.544-.564-1.078-.856-1.634-.094.078-.151.121-.2.17q-4.023,3.837-8.047,7.672a.641.641,0,0,0-.215.51q.01,4.515,0,9.031Z" transform="translate(92.055 -94.529)"/><path class="c" d="M295.264,185.319q-5.632-5.312-11.27-10.617c-.361-.34-.726-.676-1.124-1.046a22.584,22.584,0,0,0-.162,3.339,10.524,10.524,0,0,0,3.314,7.449,14.485,14.485,0,0,0,6.575,3.7c.916.247,1.857.4,2.84.607,0-1.13,0-2.145-.007-3.16A.463.463,0,0,0,295.264,185.319Z" transform="translate(139.584 -128.174)"/><path class="c" d="M346.658,188.6c.1,0,.149.005.2,0a16.006,16.006,0,0,0,7.827-3.027,11.627,11.627,0,0,0,4.2-5.6,12.757,12.757,0,0,0,.52-4.438c-.012-.63-.1-1.26-.153-1.965-.161.145-.26.23-.355.319l-4.582,4.3q-3.705,3.473-7.414,6.943a.681.681,0,0,0-.244.557c.015.863.006,1.726.006,2.588Z" transform="translate(92.06 -128.108)"/><path class="b" d="M286.5,105.906a26.853,26.853,0,0,0-4.654-12.154,27.892,27.892,0,0,0-5.8-6.173,1.817,1.817,0,0,0-1.557-.4,1.753,1.753,0,0,0-1.432,1.365,1.822,1.822,0,0,0,.641,1.9,36.68,36.68,0,0,1,2.723,2.493,23.652,23.652,0,0,1,6.306,20.373,23.333,23.333,0,0,1-7.547,14.042,23.8,23.8,0,0,1-12.956,6.136c-.492.072-.989.108-1.488.162v-5.114c.057-.012.087-.022.117-.025a20.633,20.633,0,0,0,6.838-1.8,17.681,17.681,0,0,0,7.446-6.215,14.8,14.8,0,0,0,2.45-8.659,29.349,29.349,0,0,0-1.7-9.16,46.157,46.157,0,0,0-5.908-11.442l-11.123,10.84L247.741,91.23a52.4,52.4,0,0,0-3.333,5.485,38.013,38.013,0,0,0-3.839,10.735,21.445,21.445,0,0,0-.166,7.686,14.325,14.325,0,0,0,3.794,7.4A19.06,19.06,0,0,0,254.66,128.2c.762.154,1.536.242,2.327.364v5.109c-.658-.081-1.3-.139-1.934-.243a23.741,23.741,0,0,1-11.9-5.526,23.379,23.379,0,0,1-8.085-14.173,23.665,23.665,0,0,1,6.239-20.8,30.558,30.558,0,0,1,2.657-2.428,1.879,1.879,0,0,0,.345-2.678,1.841,1.841,0,0,0-2.639-.237,27.547,27.547,0,0,0-10.113,16.357c-.258,1.241-.346,2.518-.514,3.779a1.655,1.655,0,0,1-.051.2v3.206q.085.775.171,1.55a26.866,26.866,0,0,0,4.184,11.815,27.64,27.64,0,0,0,18.017,12.39,24.242,24.242,0,0,0,4.489.521.9.9,0,0,1,.2.049h1.6a1.232,1.232,0,0,1,.229-.049,26.238,26.238,0,0,0,5.659-.787A27.961,27.961,0,0,0,286.5,105.906Zm-29.489,18.554c-.983-.207-1.924-.36-2.84-.607a14.485,14.485,0,0,1-6.575-3.7,10.524,10.524,0,0,1-3.314-7.449,22.584,22.584,0,0,1,.162-3.339c.4.37.763.706,1.124,1.046q5.637,5.307,11.27,10.617a.463.463,0,0,1,.164.27C257.011,122.314,257.006,123.329,257.006,124.459Zm0-9.359v.42l-1.809-1.7q-4.755-4.472-9.511-8.941a.328.328,0,0,1-.111-.4,38.4,38.4,0,0,1,2.9-6.607c.019-.035.045-.065.087-.125.5.473.985.935,1.47,1.4q3.312,3.175,6.627,6.347a1.024,1.024,0,0,1,.352.824C257,109.246,257.007,112.173,257.007,115.1Zm3.909-9.524q4.027-3.833,8.047-7.672c.051-.049.109-.092.2-.17.292.556.584,1.09.856,1.634a37.573,37.573,0,0,1,2.109,5.081.367.367,0,0,1-.124.448q-5.519,5.167-11.033,10.338c-.066.062-.14.117-.268.222v-.34q0-4.515,0-9.031A.641.641,0,0,1,260.917,105.577Zm-.217,15.881a.681.681,0,0,1,.244-.557q3.712-3.467,7.414-6.943l4.582-4.3c.095-.089.193-.174.355-.319.057.705.141,1.334.153,1.965a12.757,12.757,0,0,1-.52,4.438,11.627,11.627,0,0,1-4.2,5.6,16.006,16.006,0,0,1-7.827,3.027c-.05.006-.1,0-.2,0v-.332C260.706,123.183,260.715,122.32,260.7,121.458Z" transform="translate(178.013 -63.884)"/></g></svg>