<svg xmlns="http://www.w3.org/2000/svg" width="290.426" height="73.266" viewBox="0 0 290.426 73.266"><defs><style>.a{fill:#83b20f;}</style></defs><g transform="translate(-230.947 -348.606)"><path class="a" d="M265.92,348.606c.557.542,1.1,1.1,1.673,1.624a85.112,85.112,0,0,1,11.957,13.554,58.022,58.022,0,0,1,7.575,14.613,36.705,36.705,0,0,1,2.11,11.46,18.517,18.517,0,0,1-3.077,10.827,22.123,22.123,0,0,1-9.324,7.764,25.817,25.817,0,0,1-8.556,2.247,1.482,1.482,0,0,0-.146.031l-.007,6.4c.625-.066,1.247-.111,1.862-.2a29.774,29.774,0,0,0,16.216-7.657,29.187,29.187,0,0,0,9.461-17.554,29.585,29.585,0,0,0-7.86-25.493,45.8,45.8,0,0,0-3.4-3.122,2.279,2.279,0,0,1-.8-2.383,2.193,2.193,0,0,1,1.793-1.705,2.275,2.275,0,0,1,1.947.5,34.884,34.884,0,0,1,7.244,7.731,33.584,33.584,0,0,1,5.8,15.21,34.977,34.977,0,0,1-26.262,38.388,32.828,32.828,0,0,1-7.08.976,1.563,1.563,0,0,0-.287.061l-2,0a1.136,1.136,0,0,0-.246-.062,30.322,30.322,0,0,1-5.615-.659,34.573,34.573,0,0,1-22.52-15.525,33.6,33.6,0,0,1-5.217-14.785q-.107-.969-.211-1.939l0-4.01a2.026,2.026,0,0,0,.065-.248c.212-1.577.324-3.174.649-4.726a34.458,34.458,0,0,1,12.674-20.447,2.3,2.3,0,0,1,3.3.3,2.35,2.35,0,0,1-.435,3.35,38.288,38.288,0,0,0-3.328,3.033,29.6,29.6,0,0,0-7.834,26.007A29.243,29.243,0,0,0,246.138,409.9a29.7,29.7,0,0,0,14.882,6.93c.792.131,1.595.2,2.418.306l.007-6.391c-.989-.154-1.958-.265-2.91-.458a23.841,23.841,0,0,1-13.081-7.1,17.919,17.919,0,0,1-4.735-9.263,26.825,26.825,0,0,1,.219-9.615,47.533,47.533,0,0,1,4.818-13.423,75.835,75.835,0,0,1,14.615-19.006c1.142-1.109,2.314-2.185,3.472-3.277Zm2.2,45.752c.16-.131.252-.2.335-.277q6.908-6.458,13.816-12.916a.46.46,0,0,0,.155-.561,46.993,46.993,0,0,0-2.631-6.359c-.34-.681-.7-1.35-1.068-2.045-.117.1-.189.151-.253.212q-5.038,4.794-10.077,9.586a.8.8,0,0,0-.27.638q.006,5.648-.007,11.3Zm-4.626.074v-.526c0-3.661,0-7.323.024-10.984a1.281,1.281,0,0,0-.439-1.031q-4.151-3.963-8.281-7.948c-.606-.582-1.216-1.161-1.837-1.754-.052.074-.085.112-.109.156a48.07,48.07,0,0,0-3.642,8.261.41.41,0,0,0,.139.5q5.946,5.6,11.884,11.2Zm20.382-7.705c-.2.181-.325.288-.444.4l-5.737,5.368q-4.64,4.339-9.285,8.674a.851.851,0,0,0-.306.7c.018,1.079.005,2.158,0,3.237v.415a2.424,2.424,0,0,0,.249,0,20.016,20.016,0,0,0,9.794-3.775,14.542,14.542,0,0,0,5.257-7,15.956,15.956,0,0,0,.657-5.551C284.047,388.4,283.943,387.609,283.872,386.726Zm-20.4,18.887c0-1.413.008-2.684,0-3.953a.578.578,0,0,0-.2-.338q-7.038-6.653-14.083-13.3c-.451-.426-.907-.846-1.4-1.31a28.254,28.254,0,0,0-.208,4.176,13.166,13.166,0,0,0,4.135,9.323,18.118,18.118,0,0,0,8.22,4.638C261.069,405.161,262.246,405.353,263.476,405.613Zm-.214-47.258a74.231,74.231,0,0,0-7.545,9.329l7.526,7.227Zm12.673,9.359c-1.207-2.045-6.644-8.754-7.488-9.245l-.019,16.389Z" transform="translate(0)"/><path class="a" d="M759.821,432.255v.444q-.008,6.978-.016,13.956c0,.7-.189.891-.889.89-.912,0-1.824,0-2.736,0-.565,0-.8-.234-.795-.795q.012-11.412.026-22.823c0-.527.217-.709.749-.759a1.4,1.4,0,0,1,1.262.517q6.2,6.651,12.437,13.267l1.341,1.425v-.512q.008-6.727.016-13.455c0-.687.2-.883.9-.883q1.33,0,2.659,0c.679,0,.913.23.912.9q-.012,11.315-.026,22.63c0,.641-.21.812-.86.853a1.228,1.228,0,0,1-1.086-.473q-6.769-7.487-13.563-14.951a1.937,1.937,0,0,1-.195-.318Z" transform="translate(-355.915 -50.594)"/><path class="a" d="M489.537,439.257v.524q0,3.663-.009,7.326c0,.658-.212.864-.883.864-.938,0-1.876,0-2.814,0-.532,0-.775-.245-.774-.782q.011-11.22.026-22.44c0-.577.242-.813.83-.812,2.647,0,5.294-.013,7.941.012a7.659,7.659,0,0,1,.043,15.318l-3.893,0Zm.019-4.238c.135.009.236.021.336.021,1.259,0,2.518.013,3.777,0a3.431,3.431,0,1,0-.14-6.86c-1.208-.01-2.415,0-3.623,0-.111,0-.221.016-.343.026Z" transform="translate(-172.455 -51.119)"/><path class="a" d="M597.89,434.536l0-3.373q0-3.1.008-6.207c0-.631.231-.866.856-.868q1.272,0,2.544,0c.594,0,.841.253.84.848q-.012,11.18-.026,22.36c0,.58-.245.823-.815.827-.334,0-.668,0-1,0a.712.712,0,0,1-.823-.591c-.118-.336-.223-.677-.347-1.056a1.493,1.493,0,0,0-.167.125,6.179,6.179,0,0,1-9.694-1.127,7.875,7.875,0,0,1,.629-9.319,6.316,6.316,0,0,1,5.363-2.093A23.32,23.32,0,0,1,597.89,434.536Zm.134,6.075c0-.59.013-1.181-.007-1.771a.554.554,0,0,0-.191-.408,4.187,4.187,0,0,0-3.507-.491,3.627,3.627,0,0,0-1.329,5.848,2.955,2.955,0,0,0,3.244.75,2.821,2.821,0,0,0,1.789-2.735Q598.024,441.209,598.024,440.612Z" transform="translate(-242.341 -51.226)"/><path class="a" d="M923.876,468.644c-.167.146-.326.29-.491.43a6.137,6.137,0,0,1-6.53,1.041,5.051,5.051,0,0,1-3.078-3.923,10.1,10.1,0,0,1-.253-2.134c-.029-2.236-.007-4.472,0-6.708,0-.662.183-.841.848-.841q1.233,0,2.467,0c.6,0,.8.2.8.816,0,2.146-.018,4.292,0,6.438a5.071,5.071,0,0,0,.218,1.475,2.319,2.319,0,0,0,3.407,1.313,2.939,2.939,0,0,0,1.6-2.671q0-3.258.007-6.516c0-.727.124-.849.85-.849l2.274,0c.74,0,.923.185.923.943q0,1.793,0,3.585,0,4.067-.01,8.135c0,.9-.161,1.066-1.047,1.065H925.2c-.606,0-.745-.1-.959-.681-.1-.277-.2-.554-.306-.831A.782.782,0,0,0,923.876,468.644Z" transform="translate(-463.229 -73.229)"/><path class="a" d="M645.408,463.023a3.176,3.176,0,0,0,2.436,2.867,4.364,4.364,0,0,0,3.311-.655c.678-.418.809-.4,1.324.194.36.418.726.831,1.085,1.251s.363.716-.082,1.071a7.277,7.277,0,0,1-8.111,1.059c-2.822-1.333-4-3.795-3.914-6.859a6.94,6.94,0,0,1,5.83-6.736A6.332,6.332,0,0,1,654.8,462.4c-.059.443-.3.636-.809.636q-3.16,0-6.319-.006Zm.308-2.442,5.061.006a2.448,2.448,0,0,0-2.295-2.289A2.638,2.638,0,0,0,645.716,460.582Z" transform="translate(-278.595 -72.283)"/><path class="a" d="M552.093,462.2a7.039,7.039,0,1,1-6.848-7.231A7.141,7.141,0,0,1,552.093,462.2Zm-10.334.09c.043.265.067.536.131.8a3.227,3.227,0,0,0,4.552,2.26,3.575,3.575,0,0,0,1.858-3.636,3.3,3.3,0,0,0-3.481-2.994A3.39,3.39,0,0,0,541.759,462.294Z" transform="translate(-208.396 -72.185)"/><path class="a" d="M837.539,468a6.208,6.208,0,0,1-3.29,1.673,4.542,4.542,0,0,1-4.981-2.25c-1.248-2.634-.491-5.81,3.325-6.582a8.368,8.368,0,0,1,3.777.126c.1.025.2.039.327.063a2.823,2.823,0,0,0-.249-1.58,1.248,1.248,0,0,0-1.087-.693,13.759,13.759,0,0,0-4.043.423c-.7.159-.895.039-1.02-.68-.095-.544-.2-1.086-.286-1.63-.083-.521.054-.8.522-.924a15.25,15.25,0,0,1,5.981-.544,4.016,4.016,0,0,1,3.809,3.954,17.84,17.84,0,0,1,.115,1.959c.011,2.39,0,4.78,0,7.171,0,.7-.211.909-.924.909a5.6,5.6,0,0,0-.693,0,.8.8,0,0,1-.931-.615C837.8,468.531,837.671,468.292,837.539,468Zm-.9-3.308c0-.382.018-.641-.008-.9a.38.38,0,0,0-.185-.274,4.091,4.091,0,0,0-2.336-.278,1.788,1.788,0,0,0-1.517,1.307,1.684,1.684,0,0,0,.525,1.82,1.89,1.89,0,0,0,2.17.18C836.111,466.16,836.9,465.715,836.636,464.692Z" transform="translate(-405.681 -72.406)"/><path class="a" d="M1107.132,468.435a14.91,14.91,0,0,1-1.969,1.173,5.154,5.154,0,0,1-5.108-.4,4.271,4.271,0,0,1-1.767-3.516c-.148-2.6,1.662-4.087,3.852-4.515a8.466,8.466,0,0,1,3.778.126c.1.025.2.035.3.052a1.685,1.685,0,0,0-1.77-2.281,35.671,35.671,0,0,0-3.618.461c-.626.1-.856,0-.972-.63-.1-.555-.186-1.113-.284-1.669s.06-.845.626-.994a17.675,17.675,0,0,1,4.375-.6,9.76,9.76,0,0,1,1.914.164,3.926,3.926,0,0,1,3.365,3.729,17.338,17.338,0,0,1,.142,2.111c.014,2.39,0,4.78,0,7.17,0,.7-.213.909-.926.908a5.793,5.793,0,0,0-.693,0,.8.8,0,0,1-.929-.613C1107.352,468.872,1107.223,468.635,1107.132,468.435Zm-.916-3.542v-.231c0-.78,0-.788-.764-.981a3.346,3.346,0,0,0-2.4.114,1.736,1.736,0,0,0-.967,1.81,1.672,1.672,0,0,0,1.358,1.487,2.851,2.851,0,0,0,2.21-.678A1.442,1.442,0,0,0,1106.216,464.893Z" transform="translate(-588.625 -72.646)"/><path class="a" d="M1009.211,461.229a10.938,10.938,0,0,0-.132-1.121,1.333,1.333,0,0,0-1.369-1.175,13.66,13.66,0,0,0-3.927.429c-.688.162-.891.051-1.019-.636q-.166-.89-.3-1.784a.623.623,0,0,1,.454-.784,14.135,14.135,0,0,1,6.581-.472,3.817,3.817,0,0,1,3.233,3.542,17.394,17.394,0,0,1,.169,2.417c.02,2.326,0,4.652,0,6.978,0,.759-.2.954-.959.953-.257,0-.515-.018-.771,0a.7.7,0,0,1-.768-.5c-.115-.285-.251-.561-.391-.871-.294.228-.565.456-.854.657a5.561,5.561,0,0,1-4.878.827,4.329,4.329,0,0,1-3.059-4.876,4.277,4.277,0,0,1,3.862-3.8,8.833,8.833,0,0,1,3.742.129C1008.919,461.171,1009.019,461.189,1009.211,461.229Zm-.1,3.655c0-1.206,0-1.206-1.074-1.432l-.037-.009a3.08,3.08,0,0,0-2.13.246,1.711,1.711,0,0,0-.856,1.86,1.639,1.639,0,0,0,1.316,1.385,2.8,2.8,0,0,0,2.181-.641A1.3,1.3,0,0,0,1009.111,464.884Z" transform="translate(-522.733 -72.527)"/><path class="a" d="M880.015,450.606c-.008.148-.019.26-.019.372q0,2.544-.006,5.089c0,.82.391,1.192,1.211,1.082a9.9,9.9,0,0,0,1.416-.344c.5-.145.722-.056.882.435.227.694.438,1.395.662,2.09a.569.569,0,0,1-.294.781,9.214,9.214,0,0,1-5.361.8,3.229,3.229,0,0,1-2.518-2.965,10.118,10.118,0,0,1-.094-1.343c-.008-1.838,0-3.675,0-5.513V450.6c-.336,0-.65,0-.963,0-.591-.009-.823-.228-.832-.815q-.015-1,0-2c.01-.614.212-.8.816-.8.307,0,.613,0,.962,0,.008-.162.019-.3.02-.434,0-1.079,0-2.159.005-3.238,0-.546.218-.778.76-.79q1.29-.029,2.581-.031c.514,0,.753.237.755.756.006,1.092,0,2.184,0,3.277,0,.139,0,.278,0,.465h1.252c.578,0,1.156,0,1.734,0,.407.006.654.207.663.595.02.8.021,1.594,0,2.39-.012.414-.292.629-.768.635-.809.009-1.619,0-2.428,0Z" transform="translate(-436.479 -63.711)"/><path class="a" d="M1049.838,436.6q.006-5.549.013-11.1c0-.7.219-.915.925-.916q1.213,0,2.427,0c.6,0,.85.243.849.835q-.011,11.176-.026,22.351c0,.627-.232.85-.866.85-.848,0-1.7,0-2.543,0-.551,0-.792-.248-.792-.807Q1049.83,442.205,1049.838,436.6Z" transform="translate(-555.742 -51.564)"/><path class="a" d="M970.954,457.474a15.071,15.071,0,0,1,1.208-1.112,4.857,4.857,0,0,1,4.649-.578,1.55,1.55,0,0,1,.465.266.61.61,0,0,1,.189.85c-.416.737-.835,1.473-1.264,2.2a.64.64,0,0,1-.86.277,2.678,2.678,0,0,0-2.991.719,1.131,1.131,0,0,0-.349.855c.012,2.543,0,5.086,0,7.63,0,.781-.176.959-.943.959-.8,0-1.592,0-2.389,0a.683.683,0,0,1-.779-.781q0-6.088.014-12.177c0-.548.23-.765.776-.768.359,0,.72.017,1.078,0a.7.7,0,0,1,.774.545c.124.364.26.723.392,1.084A.078.078,0,0,0,970.954,457.474Z" transform="translate(-500.136 -72.513)"/><path class="a" d="M695.153,457.243a5.044,5.044,0,0,1,2.59-1.9,5.26,5.26,0,0,1,3.216.119,1.866,1.866,0,0,1,.53.3.587.587,0,0,1,.161.821c-.408.727-.817,1.454-1.239,2.173-.222.379-.449.448-.917.294a2.684,2.684,0,0,0-2.979.765,1.151,1.151,0,0,0-.347.857c.012,2.582,0,5.163,0,7.745,0,.618-.181.806-.8.809-.834,0-1.669,0-2.5,0-.537,0-.784-.246-.784-.773q0-6.088.014-12.176c0-.558.214-.773.761-.777.372,0,.745.013,1.117,0a.682.682,0,0,1,.743.531C694.847,456.415,694.991,456.795,695.153,457.243Z" transform="translate(-312.955 -72.303)"/><path class="a" d="M1075.7,463.527q0-3.007.007-6.015c0-.629.192-.817.832-.818q1.253,0,2.505,0c.608,0,.826.222.825.845q0,4.453-.009,8.907,0,1.523,0,3.046c0,.709-.219.93-.913.93l-2.39,0c-.664,0-.861-.2-.861-.88Q1075.7,466.535,1075.7,463.527Z" transform="translate(-573.3 -73.356)"/><path class="a" d="M1079.538,429.182a2.375,2.375,0,0,1-2.432,2.352,2.379,2.379,0,0,1,.053-4.756A2.376,2.376,0,0,1,1079.538,429.182Z" transform="translate(-572.697 -53.052)"/></g></svg>