<svg xmlns="http://www.w3.org/2000/svg" width="27.973" height="27.973" viewBox="0 0 27.973 27.973"><defs><style>.a{fill:#4e4e4e;}</style></defs><g transform="translate(0)"><path class="a" d="M19.639,0H8.333A8.343,8.343,0,0,0,0,8.333V19.639a8.343,8.343,0,0,0,8.333,8.333H19.639a8.343,8.343,0,0,0,8.333-8.333V8.333A8.343,8.343,0,0,0,19.639,0Zm5.519,19.639a5.519,5.519,0,0,1-5.519,5.519H8.333a5.519,5.519,0,0,1-5.519-5.519V8.333A5.519,5.519,0,0,1,8.333,2.814H19.639a5.519,5.519,0,0,1,5.519,5.519V19.639Z"/><path class="a" d="M140.235,133a7.235,7.235,0,1,0,7.235,7.235A7.243,7.243,0,0,0,140.235,133Zm0,11.655a4.421,4.421,0,1,1,4.421-4.421A4.421,4.421,0,0,1,140.235,144.655Z" transform="translate(-126.248 -126.248)"/><ellipse class="a" cx="1.734" cy="1.734" rx="1.734" ry="1.734" transform="translate(19.501 5.072)"/></g></svg>