<svg xmlns="http://www.w3.org/2000/svg" width="284" height="240.308" viewBox="0 0 284 240.308"><defs><style>.a{opacity:0.082;}.b{fill:#83b20f;}</style></defs><g class="a"><path class="b" d="M98.307,145.777H60.076A16.316,16.316,0,0,1,43.69,129.391v-5.459a42.1,42.1,0,0,1,12.8-30.893,42.106,42.106,0,0,1,30.893-12.8H98.307a11.074,11.074,0,0,0,10.922-10.922V47.469A11.074,11.074,0,0,0,98.307,36.545H87.385a85.155,85.155,0,0,0-33.879,6.912A86.558,86.558,0,0,0,6.913,90.052,85.117,85.117,0,0,0,0,123.931V244.082A31.6,31.6,0,0,0,9.556,267.3a31.61,31.61,0,0,0,23.213,9.556H98.311a32.628,32.628,0,0,0,32.768-32.77V178.546a32.636,32.636,0,0,0-32.772-32.77Z" transform="translate(0 -36.545)"/><path class="b" d="M377.341,155.333a31.6,31.6,0,0,0-23.211-9.556H315.9a16.316,16.316,0,0,1-16.382-16.386v-5.459a43.7,43.7,0,0,1,43.693-43.692h10.92a11.078,11.078,0,0,0,10.925-10.922V47.469a11.078,11.078,0,0,0-10.925-10.924h-10.92a85.177,85.177,0,0,0-33.886,6.912,86.581,86.581,0,0,0-46.59,46.594,85.139,85.139,0,0,0-6.915,33.879V244.082a32.629,32.629,0,0,0,32.769,32.77h65.538a32.626,32.626,0,0,0,32.766-32.77V178.546A31.6,31.6,0,0,0,377.341,155.333Z" transform="translate(-102.893 -36.545)"/></g></svg>